<?xml version="1.0" encoding="utf-8"?>
<!-- Generator: Adobe Illustrator 18.0.0, SVG Export Plug-In . SVG Version: 6.00 Build 0)  -->
<!DOCTYPE svg PUBLIC "-//W3C//DTD SVG 1.1//EN" "http://www.w3.org/Graphics/SVG/1.1/DTD/svg11.dtd">
<svg version="1.1" id="Layer_1" xmlns="http://www.w3.org/2000/svg" xmlns:xlink="http://www.w3.org/1999/xlink" x="0px" y="0px"
	 viewBox="0 0 50 50" enable-background="new 0 0 50 50" xml:space="preserve">
<path fill="#FFFFFF" d="M0,7v1v34v1h1h48h1v-1V8V7h-1H1H0z M2,9h46v2.5c-0.4,0.3-17.9,15.6-19.6,17.1l-0.1,0.1
	C27,29.8,25.7,30,25,30c-0.7,0-2-0.2-3.3-1.3c-0.4-0.3-3-2.6-5-4.3C11,19.4,2.3,11.8,2,11.5V9z M2,14.2c1.7,1.5,7.9,6.9,13.1,11.4
	L2,36V14.2z M48,14.2V36L34.9,25.6C40.1,21,46.3,15.7,48,14.2z M16.7,26.9c1.2,1.1,3.4,3,3.7,3.2l0,0c1.7,1.5,3.5,1.8,4.6,1.8
	c1.1,0,3-0.4,4.7-1.8c0.3-0.2,2.5-2.2,3.7-3.2L48,38.5V41H2v-2.5L16.7,26.9z"/>
</svg>
