<?xml version="1.0" encoding="utf-8"?>
<!-- Generator: Adobe Illustrator 18.0.0, SVG Export Plug-In . SVG Version: 6.00 Build 0)  -->
<!DOCTYPE svg PUBLIC "-//W3C//DTD SVG 1.1//EN" "http://www.w3.org/Graphics/SVG/1.1/DTD/svg11.dtd">
<svg version="1.1" id="Layer_1" xmlns="http://www.w3.org/2000/svg" xmlns:xlink="http://www.w3.org/1999/xlink" x="0px" y="0px"
	 viewBox="0 0 50 50" enable-background="new 0 0 50 50" xml:space="preserve">
<path fill="#FFFFFF" d="M10,0C4.5,0,0,4.5,0,10v30c0,5.5,4.5,10,10,10h30c5.5,0,10-4.5,10-10V10c0-5.5-4.5-10-10-10H10z M10,2h30
	c4.4,0,8,3.6,8,8v30c0,4.4-3.6,8-8,8h-6V29h4h0.8l0.2-0.8l1-6l0.2-1.2H39h-5v-2c0-0.6,0.1-0.6,0.2-0.7C34.4,18.2,35,18,36,18h3h1v-1
	v-5v-0.7l-0.7-0.2c0,0-3.2-1.1-6.3-1.1c-2.9,0-5.1,1-6.3,2.7S25,16.5,25,19v2h-2h-1v1v6v1h1h2v19H10c-4.4,0-8-3.6-8-8V10
	C2,5.6,5.6,2,10,2z M33,12c2.2,0,4.2,0.5,5,0.8V16h-2c-1.2,0-2.1,0.1-2.8,0.6C32.4,17.1,32,18.1,32,19v3v1h1h4.8l-0.7,4H33h-1v1v20
	h-5V28v-1h-1h-2v-4h2h1v-1v-3c0-2.2,0.4-4,1.2-5.2S30.5,12,33,12z"/>
</svg>
