<?xml version="1.0" encoding="utf-8"?>
<!-- Generator: Adobe Illustrator 18.0.0, SVG Export Plug-In . SVG Version: 6.00 Build 0)  -->
<!DOCTYPE svg PUBLIC "-//W3C//DTD SVG 1.1//EN" "http://www.w3.org/Graphics/SVG/1.1/DTD/svg11.dtd">
<svg version="1.1" id="Layer_1" xmlns="http://www.w3.org/2000/svg" xmlns:xlink="http://www.w3.org/1999/xlink" x="0px" y="0px"
	 viewBox="0 0 64 64" enable-background="new 0 0 64 64" xml:space="preserve">
<path fill="#FFFFFF" d="M15.6,1l4.2,13.9v9h3.5v-9.5L27.5,1h-3.6l-2.2,9.2h-0.2L19.2,1H15.6z M32.1,6.6c-1.4,0-2.6,0.4-3.4,1.2
	c-0.8,0.8-1.3,1.8-1.3,3.1v8.8c0,1.4,0.5,2.6,1.3,3.4c0.8,0.8,1.9,1.3,3.3,1.3c1.4,0,2.5-0.5,3.3-1.3c0.8-0.8,1.2-1.9,1.2-3.3V11
	c0-1.3-0.4-2.4-1.2-3.2C34.4,7,33.4,6.6,32.1,6.6z M39.1,7v14.2c0,1,0.2,1.7,0.6,2.2c0.4,0.5,0.9,0.7,1.7,0.7c0.6,0,1.1-0.1,1.8-0.5
	c0.6-0.4,1.3-0.9,1.8-1.6v1.8h3.1V7H45v12.8c-0.3,0.4-0.6,0.7-1,1c-0.3,0.2-0.6,0.3-0.9,0.3c-0.3,0-0.5-0.1-0.6-0.2
	c-0.1-0.2-0.2-0.5-0.2-0.9V7H39.1z M31.9,9.5c0.4,0,0.8,0.1,1,0.3c0.3,0.2,0.3,0.5,0.3,0.9V20c0,0.5-0.1,0.8-0.3,1
	c-0.3,0.3-0.6,0.4-1,0.4c-0.4,0-0.7-0.1-1-0.4c-0.2-0.3-0.3-0.6-0.3-1c0,0,0-9.2,0-9.2c0-0.4,0.1-0.6,0.3-0.9
	C31.2,9.6,31.5,9.5,31.9,9.5z M31.5,27.9c-6.1,0-12,0.1-17.8,0.3c-4.1,0-7.4,3.3-7.4,7.3C6.1,38.7,6,41.9,6,45.1
	c0,3.2,0.1,6.3,0.3,9.5c0,4,3.4,7.3,7.4,7.3c5.8,0.2,11.7,0.3,17.8,0.3c6.1,0,12-0.1,17.8-0.3c4.1,0,7.4-3.3,7.4-7.3
	c0.2-3.2,0.3-6.3,0.3-9.5c0-3.2-0.1-6.4-0.3-9.6c0-4-3.3-7.3-7.4-7.3C43.5,27.9,37.6,27.8,31.5,27.9z M10,33.1h10.7
	c0.2,0,0.3,0.1,0.3,0.3v3.3c0,0.2-0.1,0.3-0.3,0.3h-3.3v19c0,0.2-0.1,0.3-0.3,0.3h-3.5c-0.2,0-0.4-0.1-0.4-0.3V37H10
	c-0.2,0-0.4-0.1-0.4-0.3v-3.3C9.6,33.2,9.8,33.1,10,33.1z M32.5,33.1h3.1c0.2,0,0.4,0.1,0.4,0.3v6.4c0.3-0.2,0.5-0.4,0.8-0.6
	c0.5-0.3,1.1-0.5,1.6-0.5c1.1,0,1.9,0.4,2.5,1.2c0.6,0.8,0.9,1.9,0.9,3.3v9.2c0,1.3-0.3,2.3-0.8,2.9c-0.6,0.7-1.4,1-2.4,1
	c-0.7,0-1.2-0.1-1.8-0.4c-0.3-0.1-0.5-0.3-0.8-0.6V56c0,0.2-0.2,0.3-0.4,0.3h-3.1c-0.2,0-0.3-0.1-0.3-0.3V33.4
	C32.1,33.2,32.3,33.1,32.5,33.1z M48.4,38.5c1.5,0,2.7,0.5,3.5,1.4c0.8,0.9,1.3,2.2,1.3,3.8v4.3c0,0.2-0.2,0.3-0.4,0.3h-5.6v2.8
	c0,1,0.1,1.4,0.2,1.6c0.1,0.2,0.3,0.4,0.8,0.4c0.4,0,0.7-0.1,0.8-0.3c0.1-0.1,0.2-0.5,0.2-1.7V50c0-0.2,0.1-0.3,0.3-0.3h3.2
	c0.2,0,0.3,0.1,0.3,0.3v1.3c0,1.8-0.4,3.1-1.2,4.1c-0.8,0.9-2.1,1.4-3.7,1.4c-1.5,0-2.7-0.5-3.6-1.5c-0.8-1-1.3-2.3-1.3-4v-7.5
	c0-1.5,0.5-2.8,1.4-3.7C45.7,39.1,46.9,38.5,48.4,38.5z M20.6,39h3.1c0.2,0,0.4,0.1,0.4,0.3v12.7c0,0.4,0,0.6,0.1,0.6
	c0,0,0.1,0.2,0.3,0.2c0.1,0,0.3-0.1,0.7-0.3c0.3-0.2,0.6-0.4,0.8-0.7V39.3c0-0.2,0.1-0.3,0.3-0.3h3.1c0.2,0,0.3,0.1,0.3,0.3V56h0.1
	c0,0.2-0.2,0.3-0.4,0.3h-3.1c-0.2,0-0.3-0.1-0.3-0.3v-1c-0.4,0.4-0.8,0.7-1.3,1c-0.7,0.4-1.3,0.6-2,0.6c-0.8,0-1.4-0.3-1.8-0.9
	c-0.4-0.6-0.6-1.3-0.6-2.4V39.3C20.3,39.1,20.4,39,20.6,39z M37.1,42.1c-0.2,0-0.5,0-0.7,0.2c-0.1,0.1-0.2,0.2-0.4,0.3v10.1
	c0.2,0.2,0.3,0.3,0.5,0.4c0.2,0.1,0.4,0.1,0.6,0.1c0.4,0,0.5-0.1,0.6-0.2c0.1-0.1,0.2-0.4,0.2-1v-8.6c0-0.5-0.1-0.8-0.2-1
	C37.4,42.3,37.3,42.2,37.1,42.1z M48.2,42.2c-0.4,0-0.6,0.1-0.8,0.3c-0.1,0.2-0.2,0.5-0.2,1.3v1.4h2.1v-1.4c0-0.8-0.2-1.1-0.3-1.3
	C48.8,42.3,48.6,42.2,48.2,42.2z"/>
</svg>
