<?xml version="1.0" encoding="utf-8"?>
<!-- Generator: Adobe Illustrator 18.0.0, SVG Export Plug-In . SVG Version: 6.00 Build 0)  -->
<!DOCTYPE svg PUBLIC "-//W3C//DTD SVG 1.1//EN" "http://www.w3.org/Graphics/SVG/1.1/DTD/svg11.dtd">
<svg version="1.1" id="Layer_1" xmlns="http://www.w3.org/2000/svg" xmlns:xlink="http://www.w3.org/1999/xlink" x="0px" y="0px"
	 viewBox="0 0 50 50" enable-background="new 0 0 50 50" xml:space="preserve">
<path fill="#FFFFFF" d="M34.2,5.5c-6,0-10.8,4.9-10.8,10.8c0,0.4,0.1,0.7,0.1,1.1c-7.4-0.7-13.9-4.3-18.4-9.7
	c-0.3-0.4-1-0.5-1.4-0.2C3.6,7.6,3.5,7.7,3.5,7.8C2.5,9.4,2,11.2,2,13.2c0,2.4,0.9,4.6,2.2,6.4c-0.3-0.1-0.5-0.2-0.8-0.3
	c-0.5-0.3-1.1-0.1-1.4,0.4C2,19.9,1.9,20,1.9,20.2v0.1c0,3.7,1.9,6.9,4.7,8.8c0,0-0.1,0-0.1,0C6,29.1,5.5,29.4,5.4,30
	c0,0.2,0,0.3,0,0.5c1.1,3.5,4,6.1,7.5,7.1c-2.8,1.7-6.1,2.7-9.6,2.7c-0.8,0-1.5,0-2.2-0.1C0.6,40,0.1,40.4,0,40.9
	c-0.1,0.4,0.1,0.8,0.5,1c4.5,2.9,9.9,4.6,15.6,4.6c9.3,0,16.7-3.9,21.6-9.5s7.5-12.8,7.5-19.6c0-0.3,0-0.6,0-0.8
	c1.8-1.4,3.5-3,4.8-5c0.3-0.5,0.2-1.1-0.3-1.4c-0.3-0.2-0.7-0.2-1-0.1c-0.5,0.2-1.1,0.3-1.7,0.4c0.7-0.9,1.3-2,1.7-3.1
	C48.8,7,48.5,6.4,48,6.2c-0.3-0.1-0.6,0-0.8,0.1c-1.7,1-3.6,1.7-5.6,2.2C39.6,6.7,37.1,5.5,34.2,5.5z M34.2,7.5
	c2.6,0,4.9,1.1,6.5,2.8c0.2,0.3,0.6,0.4,0.9,0.3c1.3-0.3,2.5-0.6,3.8-1.1c-0.7,0.9-1.6,1.7-2.6,2.3c-0.5,0.2-0.7,0.8-0.5,1.3
	c0.2,0.4,0.7,0.6,1.1,0.5c1-0.1,1.9-0.5,2.8-0.8c-0.9,0.9-1.8,1.8-2.8,2.5c-0.3,0.2-0.4,0.5-0.4,0.9c0,0.4,0,0.8,0,1.2
	c0,6.3-2.4,13-7,18.2s-11.3,8.8-20.1,8.8c-4,0-7.8-0.9-11.2-2.4c4.2-0.3,8.1-1.8,11.2-4.3c0.4-0.3,0.5-1,0.2-1.4
	c-0.2-0.2-0.5-0.4-0.8-0.4c-3.3-0.1-6.1-2-7.5-4.7c0.1,0,0.1,0,0.2,0c1,0,2-0.1,2.9-0.4c0.5-0.2,0.8-0.7,0.7-1.2
	c-0.1-0.4-0.4-0.6-0.7-0.7c-3.6-0.7-6.2-3.6-6.8-7.2c1,0.3,2,0.6,3.2,0.7c0.6,0,1-0.4,1.1-0.9c0-0.4-0.2-0.7-0.5-0.9
	C5.6,19,4,16.3,4,13.2C4,12.1,4.3,11,4.7,10c5,5.5,12,9.1,19.9,9.5c0.6,0,1-0.4,1.1-0.9c0-0.1,0-0.2,0-0.3c-0.2-0.6-0.2-1.3-0.2-2
	C25.4,11.4,29.3,7.5,34.2,7.5z"/>
</svg>
