<?xml version="1.0" encoding="UTF-8"?>
<svg width="40" height="40" version="1.1" viewBox="0 0 40 40" xml:space="preserve" xmlns="http://www.w3.org/2000/svg"><g transform="matrix(1.3333 0 0 -1.3333 0 309.57)"><g transform="matrix(.020035 0 0 .020035 .40764 185.26)" stroke-width="4.9914"><path d="m5.0977 870.34h1446.5v1446.4h-1446.5z" fill="#fff"/><path d="m1451.6 870.34h-1446.5v1446.4h1446.5z" fill="none" stroke="#231f20" stroke-width="50.912"/><g fill="#231f20"><path d="m347.68 1700c0-87.07 30.215-172.34 85.058-239.8l42.813 34.84c-46.953 57.66-72.754 130.45-72.754 204.96 0 74.44 25.703 147.19 72.52 204.79l-42.852 34.76c-54.629-67.48-84.785-152.54-84.785-239.55"/><path d="m242.34 1700c0-110.99 38.418-219.49 108.16-305.64l42.754 34.7c-61.817 76.35-95.918 172.54-95.918 270.94 0 98.44 33.965 194.59 95.722 270.84l-42.871 34.71c-69.57-86.06-107.85-194.53-107.85-305.55"/><path d="m138.07 1700c0-134.86 46.778-266.72 131.58-371.42l42.891 34.72c-76.875 94.89-119.3 214.48-119.3 336.7 0 122.17 42.207 241.56 118.81 336.21l-42.891 34.75c-84.512-104.51-131.09-236.25-131.09-370.96"/><path d="m980.9 1904.8c46.682-57.6 72.392-130.35 72.392-204.79 0-74.51-25.84-147.3-72.704-204.96l42.754-34.84c54.93 67.46 85.18 152.73 85.18 239.8 0 87.01-30.14 172.07-84.82 239.55l-42.802-34.76"/><path d="m1063.1 1970.8c61.64-76.25 95.65-172.4 95.65-270.84 0-98.4-34.07-194.59-95.92-270.94l42.85-34.7c69.78 86.15 108.18 194.65 108.18 305.64 0 111.02-38.4 219.49-107.95 305.55l-42.81-34.71"/><path d="m1144.1 2036.2c76.58-94.65 118.73-214.04 118.73-336.21 0-122.22-42.35-241.81-119.2-336.7l42.83-34.72c84.82 104.7 131.62 236.56 131.62 371.42 0 134.71-46.58 266.45-131.09 370.96l-42.89-34.75"/><path d="m479.04 1700c0-137.3 111.7-249.06 249.02-249.06 137.34 0 249.02 111.76 249.02 249.06 0 137.4-111.68 249.12-249.02 249.12-137.32 0-249.02-111.72-249.02-249.12zm52.695 0c0 108.26 88.125 196.29 196.33 196.29 108.2 0 196.21-88.03 196.21-196.29 0-108.24-88.007-196.23-196.21-196.23-108.2 0-196.33 87.99-196.33 196.23"/><path d="m277.17 1014.5h-27.559l-15.097 47.19h-52.422l-14.336-47.19h-26.816l51.894 161.27h32.09l52.246-161.27m-47.109 66.95-13.672 42.33c-1.446 4.24-4.18 14.43-8.125 30.47h-0.469c-1.68-6.88-4.18-17.02-7.715-30.47l-13.379-42.33h43.36"/><path d="m394 1014.5h-22.754l-1.406 17.48h-0.41c-8.262-13.34-20.469-20.02-36.993-20.02-11.543 0-20.605 3.48-27.48 10.43-8.223 8.87-12.246 22.19-12.246 39.84v68.64h25.898v-64.24c0-22.36 7.735-33.6 22.891-33.6 11.426 0 19.414 5.71 23.867 16.84 1.113 2.83 1.68 6.11 1.68 9.84v71.16h25.918v-83.01c0-11 0.332-22.15 1.035-33.36"/><path d="m529.73 1014.5h-23.028l-1.211 18.46h-0.664c-7.363-14.07-19.844-21-37.383-21-14.043 0-25.742 5.49-34.98 16.41-9.336 10.97-13.965 25.09-13.965 42.79 0 18.79 5.098 33.98 15.176 45.61 9.863 10.87 21.875 16.34 36.152 16.34 15.723 0 26.739-5.37 32.989-15.88v66.76h25.976v-138.3c0-11.35 0.254-21.8 0.938-31.19m-26.914 48.83v19.37c0 3.38-0.235 6.12-0.743 8.19-1.406 6.17-4.492 11.48-9.336 15.64-4.824 4.3-10.527 6.45-17.246 6.45-9.59 0-17.246-3.87-22.695-11.55-5.566-7.69-8.242-17.56-8.242-29.47 0-11.44 2.578-20.92 7.851-28.03 5.567-7.65 13.145-11.54 22.657-11.54 8.418 0 15.156 3.22 20.371 9.63 4.902 5.94 7.383 12.99 7.383 21.31"/><path d="m589.86 1165.6c0-4.7-1.543-8.42-4.57-11.25-3.008-2.95-6.973-4.31-11.777-4.31-4.297 0-7.911 1.4-10.938 4.45-2.91 2.89-4.453 6.62-4.453 11.11 0 4.36 1.543 8.13 4.551 10.98 3.027 2.89 6.855 4.3 11.347 4.3 4.493 0 8.262-1.41 11.27-4.3 3.027-2.85 4.57-6.62 4.57-10.98m-2.89-151.13h-25.899v116.37h25.899v-116.37"/><path d="m726.06 1073.5c0-17.88-5.059-32.6-15.293-44.09-10.684-11.6-24.903-17.4-42.637-17.4-17.148 0-30.742 5.63-40.898 16.88-10.079 11.25-15.137 25.41-15.137 42.79 0 17.91 5.156 32.71 15.625 44.24 10.488 11.4 24.57 17.24 42.305 17.24 17.109 0 30.8-5.78 41.269-17.09 9.863-10.93 14.766-25.13 14.766-42.57m-26.778-0.69c0 10.69-2.324 19.86-6.972 27.56-5.41 9.26-13.164 13.93-23.262 13.93-10.371 0-18.262-4.67-23.672-13.93-4.668-7.7-6.973-17.11-6.973-28.03 0-10.66 2.305-19.96 6.973-27.56 5.508-9.21 13.359-13.94 23.496-13.94 9.903 0 17.617 4.78 23.184 14.18 4.804 7.75 7.226 17.09 7.226 27.79"/><path d="m928.83 1082.1c0-23.73-5.801-41.68-17.285-53.56-10.527-11.01-25.391-16.54-44.59-16.54-39.336 0-58.945 23.22-58.945 69.63v94.18h25.976v-95.53c0-15.84 3.164-27.91 9.512-35.97 5.801-7.62 13.848-11.55 24.434-11.55 23.281 0 34.922 15.84 34.922 47.52v95.53h25.976v-93.71"/><path d="m1062.2 1014.5h-25.97v66.56c0 20.67-7.78 30.94-23.42 30.94-7.7 0-13.972-2.89-18.816-8.55-4.766-5.69-7.149-12.37-7.149-20v-68.95h-25.996v83.01c0 10.23-0.312 21.27-0.879 33.36h22.754l1.211-18.03h0.743c3.085 5.41 7.519 10.14 13.417 13.79 7.095 4.3 14.905 6.48 23.565 6.48 10.83 0 19.88-3.53 27.09-10.56 8.96-8.58 13.45-21.45 13.45-38.64v-69.41"/><path d="m1120.8 1165.6c0-4.7-1.46-8.42-4.53-11.25-3.04-2.95-7.01-4.31-11.83-4.31-4.3 0-7.97 1.4-10.98 4.45-2.89 2.89-4.39 6.62-4.39 11.11 0 4.36 1.54 8.13 4.53 10.98 3.08 2.89 6.83 4.3 11.33 4.3 4.51 0 8.3-1.41 11.34-4.3 3.07-2.85 4.53-6.62 4.53-10.98m-2.85-151.13h-26.01v116.37h26.01v-116.37"/><path d="m1209.2 1111.4h-28.59v-56.47c0-14.32 5.02-21.44 15.12-21.44 4.61 0 8.43 0.23 11.52 0.97l0.74-19.57c-5.13-1.64-11.89-2.58-20.13-2.58-10.28 0-18.21 3.05-23.97 9.12-5.84 6.29-8.63 16.68-8.63 31.2v58.77h-17.01v19.53h17.01v21.13l25.35 7.62v-28.75h28.59v-19.53"/><path d="m1302.9 1048c0-10.9-4.03-19.5-12.02-26.04-7.96-6.48-19-9.67-33.02-9.67-13.3 0-24.57 2.52-33.83 7.52l5.49 19.26c9-5.47 18.4-8.24 28.53-8.24 13.17 0 19.81 4.96 19.81 14.73 0 4.21-1.49 7.75-4.3 10.52-2.85 2.89-7.95 5.65-15.31 8.26-20.67 7.76-31 18.87-31 33.64 0 10.04 3.75 18.36 11.47 25.17 7.65 6.64 17.75 10 30.35 10 11.54 0 21.35-2.34 29.45-6.99l-5.49-18.38c-7.38 4.55-15.31 6.78-23.59 6.78-5.41 0-9.71-1.21-12.73-3.83-2.99-2.62-4.5-5.88-4.5-9.84 0-4.08 1.68-7.27 4.77-9.77 2.69-2.44 7.99-5.15 15.78-8.01 20.06-7.61 30.14-19.37 30.14-35.11"/></g></g></g></svg>
