<?xml version="1.0" encoding="utf-8"?>
<!-- Generator: Adobe Illustrator 18.0.0, SVG Export Plug-In . SVG Version: 6.00 Build 0)  -->
<!DOCTYPE svg PUBLIC "-//W3C//DTD SVG 1.1//EN" "http://www.w3.org/Graphics/SVG/1.1/DTD/svg11.dtd">
<svg version="1.1" id="Layer_1" xmlns="http://www.w3.org/2000/svg" xmlns:xlink="http://www.w3.org/1999/xlink" x="0px" y="0px"
	 viewBox="0 0 1136 640" enable-background="new 0 0 1136 640" xml:space="preserve">
<g id="Layer_2" display="none">
	<rect display="inline" stroke="#FFFFFF" stroke-miterlimit="10" width="1136" height="640"/>
</g>
<g id="Layer_1_1_">
	<path fill="none" stroke="#FFFFFF" stroke-width="12" stroke-linecap="round" stroke-linejoin="round" stroke-miterlimit="10" d="
		M778.4,100.7h21c11.6,0,21,9.4,21,21v273.5c0,11.6-9.4,21-21,21H336.6c-11.6,0-21-9.4-21-21V121.8c0-11.6,9.4-21,21-21h21"/>
	<path fill="none" stroke="#FFFFFF" stroke-width="12" stroke-linecap="round" stroke-linejoin="round" stroke-miterlimit="10" d="
		M778.4,58.6c0,0-42.5-21-105.2-21S568,58.6,568,58.6v326.1c0,0,42.1-21,105.2-21s105.2,21,105.2,21V58.6L778.4,58.6z"/>
	<path fill="none" stroke="#FFFFFF" stroke-width="12" stroke-linecap="round" stroke-linejoin="round" stroke-miterlimit="10" d="
		M568,58.6c0,0-42.5-21-105.2-21s-105.2,21-105.2,21v326.1c0,0,42.1-21,105.2-21s105.2,21,105.2,21V58.6z"/>
	<path fill="#FFFFFF" d="M586.9,411.1c0,10.4-8.5,18.9-18.9,18.9s-18.9-8.5-18.9-18.9H586.9z"/>
	<g enable-background="new    ">
		<path fill="#FFFFFF" d="M240.5,607.6c-5.4,0-10.3-0.9-14.7-2.7c-4.3-1.8-8-4.3-11-7.4c-3-3.1-5.3-6.9-6.9-11.2
			c-1.6-4.3-2.4-9.1-2.4-14.2v-54.2h9.4V572c0,4,0.6,7.7,1.7,11c1.1,3.4,2.8,6.3,5,8.8c2.2,2.5,4.9,4.4,8.1,5.8
			c3.2,1.4,6.8,2.1,10.8,2.1c4,0,7.6-0.7,10.8-2c3.2-1.4,5.9-3.3,8.1-5.8c2.2-2.4,3.9-5.4,5-8.8c1.1-3.3,1.7-7.1,1.7-11v-54.2h9.4
			V572c0,5.1-0.8,9.9-2.4,14.2c-1.6,4.3-3.9,8.1-6.9,11.2c-3,3.1-6.7,5.6-11,7.4C250.8,606.7,245.9,607.6,240.5,607.6z"/>
		<path fill="#FFFFFF" d="M320.5,607.5c-5.7,0-11-1-15.6-3.1c-4.3-1.9-8.1-4.4-11.2-7.6l2.9-4.8c0.2-0.3,0.5-0.6,0.8-0.8
			c0.2-0.2,0.5-0.2,0.8-0.2c0.1,0,0.5,0,1.1,0.4c0.7,0.4,1.4,1,2.3,1.6c0.9,0.7,2,1.5,3.1,2.3c1.2,0.9,2.6,1.7,4.2,2.4
			c1.6,0.7,3.3,1.3,5.3,1.8c2,0.5,4.2,0.7,6.7,0.7c3.1,0,5.9-0.4,8.4-1.3c2.5-0.9,4.6-2.1,6.4-3.7c1.8-1.6,3.1-3.6,4-5.8
			c0.9-2.2,1.4-4.7,1.4-7.4c0-3.1-0.7-5.7-2.2-7.7c-1.4-1.9-3.2-3.6-5.4-4.9c-2.1-1.2-4.6-2.3-7.3-3.2c-2.6-0.8-5.3-1.7-8.1-2.6
			c-2.7-0.9-5.3-1.9-7.9-3c-2.5-1.1-4.7-2.5-6.6-4.2c-1.9-1.7-3.4-3.8-4.6-6.4c-1.2-2.5-1.8-5.8-1.8-9.6c0-3,0.6-6,1.8-8.8
			c1.2-2.8,2.9-5.4,5.2-7.6c2.3-2.2,5.1-4,8.4-5.3c3.3-1.3,7.2-2,11.6-2c4.9,0,9.4,0.8,13.4,2.3c3.6,1.4,6.9,3.4,9.8,6l-2.5,4.8
			c-0.3,0.4-0.5,0.8-0.8,1c-0.2,0.1-0.4,0.2-0.8,0.2c-0.2,0-0.7-0.1-1.7-0.8c-1-0.8-2.3-1.6-3.8-2.5c-1.6-0.9-3.4-1.8-5.6-2.5
			c-2.2-0.8-4.9-1.2-8-1.2c-2.9,0-5.6,0.4-7.8,1.2c-2.3,0.8-4.2,1.9-5.8,3.3c-1.6,1.4-2.8,3.1-3.6,5c-0.8,1.9-1.2,4-1.2,6.2
			c0,2.9,0.7,5.3,2.2,7.3c1.4,1.8,3.2,3.4,5.4,4.7c2.1,1.2,4.6,2.3,7.3,3.2c2.6,0.9,5.3,1.8,8.1,2.7c2.7,0.9,5.4,2,7.9,3.1
			c2.5,1.1,4.7,2.5,6.7,4.2c1.9,1.6,3.5,3.7,4.6,6.1c1.2,2.4,1.7,5.4,1.7,8.9c0,3.8-0.7,7.4-1.9,10.8c-1.3,3.3-3.2,6.2-5.6,8.7
			c-2.5,2.4-5.5,4.4-9.2,5.8C329.3,606.8,325.1,607.5,320.5,607.5z"/>
		<polygon fill="#FFFFFF" points="370.2,606.5 370.2,517.8 423.7,517.8 423.7,524.9 379.6,524.9 379.6,558.4 415.3,558.4 
			415.3,565.1 379.6,565.1 379.6,599.4 423.8,599.4 423.7,606.5 		"/>
		<path fill="#FFFFFF" d="M499.4,606.5c-1.7,0-2.9-0.6-3.7-1.9l-0.1-0.1l-23.8-32.8c-0.8-1.2-1.8-2.1-2.8-2.6
			c-1.1-0.6-2.6-0.9-4.6-0.9h-10.9v38.3h-9.4v-88.7h24.4c5.6,0,10.6,0.6,14.6,1.7c4,1.1,7.3,2.7,9.9,4.8c2.5,2.1,4.5,4.6,5.7,7.4
			c1.2,2.9,1.9,6.3,1.9,9.9c0,3.1-0.5,5.9-1.4,8.6c-1,2.6-2.4,5-4.2,7.1c-1.8,2.1-4.1,3.9-6.7,5.4c-2.7,1.5-5.7,2.7-9.1,3.4
			l-3.6,0.8l3.1,2c1.4,0.9,2.7,2.1,3.7,3.5l25,34.1H499.4z M453.5,562.2H468c3.7,0,7.1-0.5,10-1.4c2.9-0.9,5.4-2.3,7.4-4
			c2-1.7,3.6-3.9,4.6-6.3c1-2.4,1.5-5.1,1.5-7.9c0-5.9-2-10.5-6-13.5c-3.8-3-9.6-4.5-17-4.5h-15.1V562.2z"/>
		<path fill="#FFFFFF" d="M598.1,607.5c-7.2,0-13.7-1.1-19.4-3.3c-5.7-2.2-10.7-5.3-14.7-9.3c-4-3.9-7.2-8.8-9.3-14.3
			c-2.2-5.6-3.3-11.8-3.3-18.5c0-6.8,1.1-13,3.2-18.6c2.1-5.5,5.2-10.3,9-14.3c3.9-3.9,8.7-7,14.3-9.2c5.6-2.2,12-3.3,18.9-3.3
			c3.5,0,6.8,0.3,9.9,0.8c3,0.5,5.8,1.3,8.4,2.2c2.5,1,4.9,2.1,7.1,3.5c1.8,1.2,3.6,2.4,5.2,3.8l-2.8,4.6c-0.3,0.5-0.7,0.8-1.3,1
			c-0.1,0-0.2,0-0.3,0c-0.4,0-0.9-0.2-1.4-0.5c-1-0.6-2.2-1.3-3.5-2.1c-1.4-0.9-3.1-1.8-5.1-2.6c-2-0.8-4.3-1.5-7-2.1
			c-2.7-0.6-5.9-0.9-9.5-0.9c-5.3,0-10.2,0.9-14.6,2.6c-4.4,1.8-8.1,4.3-11.2,7.6c-3.1,3.3-5.5,7.3-7.1,11.9
			c-1.6,4.6-2.5,9.8-2.5,15.5c0,5.9,0.9,11.3,2.6,16c1.7,4.7,4.2,8.8,7.4,12.1c3.2,3.3,7.1,5.9,11.7,7.6c4.5,1.7,9.6,2.6,15.2,2.6
			c2.2,0,4.3-0.1,6.2-0.4c1.9-0.3,3.8-0.6,5.5-1.1c1.8-0.5,3.5-1,5.1-1.7c1.6-0.7,3.3-1.5,4.9-2.3l0.8-0.4v-22.6h-15.8
			c-0.6,0-0.8-0.2-0.9-0.3c-0.2-0.2-0.3-0.4-0.3-0.6v-5.5h25.2v32.9c-4.3,3-8.9,5.3-13.7,6.8C609.8,606.7,604.2,607.5,598.1,607.5z"
			/>
		<path fill="#FFFFFF" d="M684.5,607.6c-5.4,0-10.3-0.9-14.7-2.7c-4.3-1.8-8-4.3-11-7.4c-3-3.1-5.3-6.9-6.9-11.2
			c-1.6-4.3-2.4-9.1-2.4-14.2v-54.2h9.4V572c0,4,0.6,7.7,1.7,11c1.1,3.4,2.8,6.3,5,8.8c2.2,2.5,4.9,4.4,8.1,5.8
			c3.2,1.4,6.8,2.1,10.8,2.1c4,0,7.6-0.7,10.8-2c3.2-1.4,5.9-3.3,8.1-5.8c2.2-2.4,3.9-5.4,5-8.8c1.1-3.3,1.7-7.1,1.7-11v-54.2h9.4
			V572c0,5.1-0.8,9.9-2.4,14.2c-1.6,4.3-3.9,8.1-6.9,11.2c-3,3.1-6.7,5.6-11,7.4C694.8,606.7,689.9,607.6,684.5,607.6z"/>
		<rect x="744.7" y="517.8" fill="#FFFFFF" width="9.4" height="88.7"/>
		<path fill="#FFFFFF" d="M780.6,606.5v-88.7h32.7c6.5,0,12.5,1.1,17.9,3.2c5.3,2.1,10,5.1,13.8,9c3.8,3.9,6.8,8.6,8.9,14
			c2.1,5.4,3.2,11.6,3.2,18.2s-1.1,12.8-3.2,18.2c-2.1,5.4-5.1,10.1-8.9,14c-3.8,3.8-8.4,6.9-13.8,9c-5.4,2.1-11.4,3.2-17.9,3.2
			H780.6z M790,599.5h23.3c5.1,0,9.8-0.9,14-2.5c4.2-1.7,7.8-4.2,10.8-7.4c2.9-3.2,5.2-7.1,6.8-11.8c1.6-4.6,2.4-9.8,2.4-15.6
			c0-5.8-0.8-11-2.4-15.6c-1.6-4.6-3.9-8.6-6.8-11.8c-3-3.2-6.6-5.7-10.8-7.4c-4.2-1.7-8.9-2.5-14-2.5H790V599.5z"/>
		<polygon fill="#FFFFFF" points="877.9,606.5 877.9,517.8 931.4,517.8 931.4,524.9 887.3,524.9 887.3,558.4 923,558.4 923,565.1 
			887.3,565.1 887.3,599.4 931.5,599.4 931.4,606.5 		"/>
	</g>
</g>
<text transform="matrix(1 0 0 1 195.8936 608)" display="none" fill="#FFFFFF" enable-background="new    " font-family="'Lato-Light'" font-size="128">USER GUIDE</text>
</svg>
