<?xml version="1.0" encoding="utf-8"?>
<!-- Generator: Adobe Illustrator 23.0.5, SVG Export Plug-In . SVG Version: 6.00 Build 0)  -->
<svg version="1.1" id="Layer_1" xmlns="http://www.w3.org/2000/svg" xmlns:xlink="http://www.w3.org/1999/xlink" x="0px" y="0px"
	 viewBox="0 0 820 640" style="enable-background:new 0 0 820 640;" xml:space="preserve">
<style type="text/css">
	.st0{display:none;}
	.st1{display:inline;stroke:#FFFFFF;stroke-miterlimit:10;}
	.st2{fill:none;stroke:#FFFFFF;stroke-width:12;stroke-linecap:round;stroke-linejoin:round;stroke-miterlimit:10;}
	.st3{fill:#FFFFFF;}
	.st4{enable-background:new    ;}
</style>
<g class="st0">
	<rect class="st1" width="820" height="640"/>
</g>
<g id="Layer_1_1_">
	<path class="st2" d="M620.4,100.7h21c11.6,0,21,9.4,21,21v273.5c0,11.6-9.4,21-21,21H178.6c-11.6,0-21-9.4-21-21V121.8
		c0-11.6,9.4-21,21-21h21"/>
	<path class="st2" d="M620.4,58.6c0,0-42.5-21-105.2-21S410,58.6,410,58.6v326.1c0,0,42.1-21,105.2-21s105.2,21,105.2,21V58.6
		L620.4,58.6z"/>
	<path class="st2" d="M410,58.6c0,0-42.5-21-105.2-21s-105.2,21-105.2,21v326.1c0,0,42.1-21,105.2-21s105.2,21,105.2,21V58.6z"/>
	<path class="st3" d="M428.9,411.1c0,10.4-8.5,18.9-18.9,18.9s-18.9-8.5-18.9-18.9H428.9z"/>
</g>
<g class="st4">
	<path class="st3" d="M83.5,610.3c-6,0-11.2-1-15.6-3c-4.4-2-8.1-4.7-11-8c-2.9-3.3-5.1-7.1-6.5-11.5c-1.4-4.3-2.1-8.8-2.1-13.4
		v-57.1h12.7v56.3c0,3.1,0.4,6.1,1.2,9.2c0.8,3,2,5.7,3.8,8.1c1.7,2.4,4.1,4.3,6.9,5.8c2.9,1.5,6.4,2.2,10.7,2.2
		c4.2,0,7.7-0.7,10.6-2.2c2.9-1.5,5.2-3.4,7-5.8c1.7-2.4,3-5.1,3.8-8.1c0.8-3,1.2-6.1,1.2-9.2v-56.3h12.7v57.1
		c0,4.6-0.7,9.1-2.1,13.4c-1.4,4.3-3.6,8.1-6.5,11.5c-2.9,3.3-6.6,6-11,8C94.6,609.3,89.4,610.3,83.5,610.3z"/>
	<path class="st3" d="M185.1,534.1c-1.8-2.5-4.2-4.5-7.3-6.1c-3.1-1.6-6.5-2.4-10.4-2.4c-2,0-4.1,0.3-6.2,0.8
		c-2.1,0.6-4,1.5-5.7,2.7c-1.7,1.2-3.1,2.8-4.2,4.6c-1.1,1.8-1.6,4-1.6,6.6c0,2.5,0.5,4.5,1.5,6.2c1,1.7,2.3,3.1,4,4.2
		c1.7,1.2,3.6,2.1,5.9,2.9c2.3,0.8,4.7,1.6,7.2,2.5c3.1,0.9,6.2,2,9.3,3.2c3.2,1.2,6,2.8,8.6,4.7c2.6,2,4.7,4.4,6.3,7.4
		c1.6,2.9,2.4,6.7,2.4,11.2c0,4.7-0.9,8.8-2.6,12.2c-1.8,3.5-4.1,6.3-7,8.6c-2.9,2.3-6.3,3.9-10,5.1c-3.8,1.1-7.7,1.7-11.7,1.7
		c-5.7,0-11.2-1.1-16.6-3.3c-5.3-2.2-9.8-5.5-13.2-9.9l9.9-8.3c2.1,3.2,5,5.7,8.6,7.7c3.6,2,7.5,2.9,11.6,2.9c2.1,0,4.3-0.3,6.4-0.9
		c2.1-0.6,4.1-1.5,5.8-2.8c1.7-1.3,3.2-2.9,4.3-4.8c1.1-1.9,1.7-4.2,1.7-7c0-2.7-0.6-5-1.7-6.8c-1.2-1.8-2.7-3.4-4.7-4.7
		c-2-1.3-4.2-2.4-6.8-3.3c-2.6-0.9-5.4-1.8-8.3-2.8c-2.9-0.9-5.8-1.9-8.6-3.1c-2.8-1.2-5.3-2.8-7.6-4.7c-2.2-1.9-4-4.3-5.4-7.1
		c-1.4-2.8-2-6.3-2-10.5c0-4.5,0.9-8.4,2.8-11.6c1.8-3.2,4.2-5.9,7.2-8.1c2.9-2.1,6.3-3.7,10-4.7c3.7-1,7.4-1.5,11.2-1.5
		c5.3,0,10.2,0.9,14.8,2.8c4.6,1.9,8.3,4.4,11.1,7.6L185.1,534.1z"/>
	<path class="st3" d="M225.5,596.7h47.4V608h-60v-90.6H271v11.1h-45.4v27.1h42.8v10.9h-42.8V596.7z"/>
	<path class="st3" d="M302.5,608h-12.7v-90.6h29.1c4.4,0,8.5,0.4,12.4,1.3c3.9,0.9,7.4,2.3,10.3,4.3c2.9,2,5.3,4.5,7,7.7
		c1.7,3.2,2.6,7.1,2.6,11.7c0,6.7-2,12-6.1,16.1c-4.1,4.1-9.4,6.7-15.9,7.8l25.3,41.6h-15.4l-23-40.3h-13.6V608z M302.5,557.1h14.6
		c3,0,5.8-0.3,8.3-0.8c2.6-0.5,4.8-1.3,6.7-2.5s3.4-2.6,4.5-4.5c1.1-1.8,1.7-4.1,1.7-6.8c0-2.7-0.6-5-1.7-6.8
		c-1.1-1.8-2.6-3.3-4.4-4.4c-1.8-1.1-4-1.9-6.5-2.4c-2.5-0.5-5.1-0.7-7.8-0.7h-15.5V557.1z"/>
	<path class="st3" d="M468.7,536.1c-2.7-3-6.2-5.4-10.4-7.2c-4.2-1.8-8.9-2.7-14.1-2.7c-5.3,0-10.1,1-14.3,2.9
		c-4.3,1.9-7.9,4.5-10.9,7.9c-3,3.3-5.3,7.2-6.9,11.6c-1.6,4.4-2.4,9.1-2.4,14c0,5,0.8,9.8,2.4,14.2c1.6,4.4,3.9,8.3,6.9,11.6
		c3,3.3,6.7,5.9,11,7.7c4.4,1.9,9.2,2.8,14.6,2.8c4.3,0,8.2-0.4,11.8-1.2c3.6-0.8,6.7-1.9,9.3-3.3v-25.2h-20.1v-10.8h32.6v43.9
		c-4.8,2.6-10,4.5-15.6,5.9s-11.8,2-18.4,2c-7.1,0-13.6-1.2-19.5-3.5c-5.9-2.3-11-5.6-15.3-9.9c-4.3-4.2-7.6-9.3-10-15.1
		c-2.4-5.8-3.6-12.3-3.6-19.3c0-7.1,1.2-13.5,3.6-19.4c2.4-5.8,5.8-10.8,10.1-15c4.3-4.1,9.4-7.4,15.3-9.7
		c5.9-2.3,12.3-3.5,19.2-3.5c7.3,0,13.7,1.1,19.4,3.2c5.7,2.1,10.4,5,14.1,8.6L468.7,536.1z"/>
	<path class="st3" d="M534.5,610.3c-6,0-11.2-1-15.6-3c-4.4-2-8.1-4.7-11-8c-2.9-3.3-5.1-7.1-6.5-11.5c-1.4-4.3-2.1-8.8-2.1-13.4
		v-57.1H512v56.3c0,3.1,0.4,6.1,1.2,9.2c0.8,3,2,5.7,3.8,8.1c1.7,2.4,4.1,4.3,6.9,5.8c2.9,1.5,6.4,2.2,10.7,2.2
		c4.2,0,7.7-0.7,10.6-2.2c2.9-1.5,5.2-3.4,7-5.8c1.7-2.4,3-5.1,3.8-8.1c0.8-3,1.2-6.1,1.2-9.2v-56.3h12.7v57.1
		c0,4.6-0.7,9.1-2.1,13.4c-1.4,4.3-3.6,8.1-6.5,11.5c-2.9,3.3-6.6,6-11,8C545.7,609.3,540.5,610.3,534.5,610.3z"/>
	<path class="st3" d="M603.8,608h-12.7v-90.6h12.7V608z"/>
	<path class="st3" d="M625.8,517.4h31.1c5.8,0,11.6,0.9,17.4,2.6c5.8,1.7,11.1,4.4,15.7,8.1c4.7,3.7,8.5,8.4,11.4,14.1
		c2.9,5.7,4.4,12.6,4.4,20.6c0,7.8-1.5,14.5-4.4,20.2c-2.9,5.7-6.7,10.4-11.4,14.1c-4.7,3.7-9.9,6.5-15.7,8.3
		c-5.8,1.8-11.6,2.8-17.4,2.8h-31.1V517.4z M638.5,596.9h15.9c5.5,0,10.5-0.8,15.2-2.3c4.7-1.5,8.7-3.8,12-6.7
		c3.4-2.9,6-6.5,7.9-10.8c1.9-4.3,2.8-9.1,2.8-14.5c0-5.6-0.9-10.6-2.8-14.8c-1.9-4.3-4.5-7.8-7.9-10.7c-3.4-2.9-7.4-5-12-6.5
		c-4.7-1.5-9.7-2.2-15.2-2.2h-15.9V596.9z"/>
	<path class="st3" d="M735.9,596.7h47.4V608h-60v-90.6h58.1v11.1h-45.4v27.1h42.8v10.9h-42.8V596.7z"/>
</g>
</svg>
