<?xml version="1.0" encoding="utf-8"?>
<!-- Generator: Adobe Illustrator 18.0.0, SVG Export Plug-In . SVG Version: 6.00 Build 0)  -->
<!DOCTYPE svg PUBLIC "-//W3C//DTD SVG 1.1//EN" "http://www.w3.org/Graphics/SVG/1.1/DTD/svg11.dtd">
<svg version="1.1" id="Layer_1" xmlns="http://www.w3.org/2000/svg" xmlns:xlink="http://www.w3.org/1999/xlink" x="0px" y="0px"
	 viewBox="0 0 1136 640" enable-background="new 0 0 1136 640" xml:space="preserve">
<g id="Layer_2" display="none">
	<rect x="148" display="inline" stroke="#FFFFFF" stroke-miterlimit="10" width="1136" height="640"/>
</g>
<g id="Layer_1_1_">
	<path fill="none" stroke="#FFFFFF" stroke-width="12" stroke-linecap="round" stroke-linejoin="round" stroke-miterlimit="10" d="
		M926.4,100.7h21c11.6,0,21,9.4,21,21v273.5c0,11.6-9.4,21-21,21H484.6c-11.6,0-21-9.4-21-21V121.8c0-11.6,9.4-21,21-21h21"/>
	<path fill="none" stroke="#FFFFFF" stroke-width="12" stroke-linecap="round" stroke-linejoin="round" stroke-miterlimit="10" d="
		M926.4,58.6c0,0-42.5-21-105.2-21S716,58.6,716,58.6v326.1c0,0,42.1-21,105.2-21s105.2,21,105.2,21V58.6L926.4,58.6z"/>
	<path fill="none" stroke="#FFFFFF" stroke-width="12" stroke-linecap="round" stroke-linejoin="round" stroke-miterlimit="10" d="
		M716,58.6c0,0-42.5-21-105.2-21s-105.2,21-105.2,21v326.1c0,0,42.1-21,105.2-21s105.2,21,105.2,21V58.6z"/>
	<path fill="#FFFFFF" d="M734.9,411.1c0,10.4-8.5,18.9-18.9,18.9s-18.9-8.5-18.9-18.9H734.9z"/>
	<g enable-background="new    ">
		<path fill="#FFFFFF" d="M390.5,603.3c4.4,0,8.2-0.8,11.7-2.3c3.4-1.5,6.3-3.6,8.7-6.3c2.4-2.7,4.2-5.9,5.5-9.5
			c1.3-3.6,1.9-7.6,1.9-11.8v-56h6.5v56c0,5-0.8,9.7-2.4,14c-1.6,4.3-3.9,8.1-6.8,11.3c-3,3.2-6.6,5.8-10.8,7.6
			c-4.2,1.8-9,2.8-14.3,2.8c-5.3,0-10.1-0.9-14.3-2.8c-4.2-1.8-7.9-4.4-10.8-7.6c-3-3.2-5.2-7-6.8-11.3c-1.6-4.3-2.4-9-2.4-14v-56
			h6.6v55.9c0,4.2,0.6,8.2,1.9,11.8c1.3,3.6,3.1,6.8,5.4,9.5c2.4,2.7,5.3,4.8,8.7,6.3C382.3,602.6,386.2,603.3,390.5,603.3z"/>
		<path fill="#FFFFFF" d="M494.4,528.4c-0.4,0.7-0.9,1.1-1.7,1.1c-0.6,0-1.3-0.4-2.1-1.2c-0.9-0.8-2.1-1.7-3.6-2.6
			c-1.5-1-3.4-1.8-5.6-2.7c-2.2-0.8-5-1.2-8.3-1.2c-3.3,0-6.2,0.5-8.7,1.4c-2.5,0.9-4.6,2.2-6.3,3.8c-1.7,1.6-3,3.5-3.8,5.6
			c-0.9,2.1-1.3,4.4-1.3,6.7c0,3.1,0.6,5.6,2,7.6c1.3,2,3,3.7,5.2,5.1c2.1,1.4,4.6,2.6,7.3,3.6c2.7,1,5.5,1.9,8.4,2.8
			c2.9,0.9,5.6,2,8.4,3.1c2.7,1.1,5.1,2.5,7.3,4.3c2.1,1.7,3.9,3.8,5.2,6.3c1.3,2.5,2,5.6,2,9.3c0,3.8-0.7,7.4-2,10.7
			c-1.3,3.3-3.2,6.3-5.7,8.7c-2.5,2.5-5.5,4.4-9.1,5.9s-7.7,2.1-12.3,2.1c-6,0-11.1-1.1-15.4-3.2c-4.3-2.1-8.1-5-11.3-8.7l1.8-2.8
			c0.5-0.6,1.1-1,1.8-1c0.4,0,0.9,0.3,1.5,0.8c0.6,0.5,1.3,1.1,2.2,1.9c0.9,0.7,1.9,1.6,3.1,2.4c1.2,0.9,2.6,1.7,4.2,2.4
			c1.6,0.7,3.4,1.4,5.4,1.9c2,0.5,4.4,0.8,7,0.8c3.6,0,6.8-0.5,9.6-1.6c2.8-1.1,5.2-2.6,7.1-4.4c1.9-1.9,3.4-4.1,4.4-6.7
			c1-2.6,1.5-5.3,1.5-8.3c0-3.2-0.7-5.8-2-7.9c-1.3-2.1-3-3.8-5.2-5.2c-2.1-1.4-4.6-2.5-7.3-3.5c-2.7-0.9-5.5-1.9-8.4-2.8
			c-2.9-0.9-5.6-1.9-8.4-3c-2.7-1.1-5.1-2.5-7.3-4.3c-2.1-1.7-3.9-3.9-5.2-6.5c-1.3-2.6-2-5.8-2-9.7c0-3,0.6-6,1.7-8.8
			c1.2-2.8,2.8-5.3,5.1-7.5c2.2-2.2,5-3.9,8.2-5.2c3.3-1.3,7-2,11.2-2c4.7,0,8.9,0.7,12.6,2.2c3.7,1.5,7.1,3.8,10.2,6.8L494.4,528.4
			z"/>
		<path fill="#FFFFFF" d="M573.2,517.4v5.4h-47.7v36.6h39.7v5.3h-39.7v37.8h47.8l-0.1,5.4h-54.3v-90.6H573.2z"/>
		<path fill="#FFFFFF" d="M599.7,567v41h-6.6v-90.6h23.2c10.4,0,18.2,2,23.4,6c5.2,4,7.8,10,7.8,17.8c0,3.5-0.6,6.6-1.8,9.5
			c-1.2,2.9-2.9,5.4-5.2,7.5c-2.2,2.2-5,3.9-8.1,5.3c-3.2,1.4-6.7,2.3-10.7,2.7c1,0.6,1.9,1.5,2.8,2.6l31.2,39.2H650
			c-0.7,0-1.3-0.1-1.8-0.4c-0.5-0.2-1-0.7-1.4-1.3l-29.1-36.7c-0.3-0.5-0.7-0.9-1.1-1.2c-0.4-0.3-0.8-0.6-1.2-0.8
			c-0.4-0.2-1-0.3-1.6-0.4c-0.6-0.1-1.4-0.1-2.3-0.1H599.7z M599.7,562.2h15.7c4,0,7.6-0.5,10.8-1.4c3.2-1,5.9-2.3,8.1-4.1
			c2.2-1.8,3.9-3.9,5-6.5c1.2-2.5,1.7-5.4,1.7-8.5c0-6.4-2.1-11.2-6.3-14.3c-4.2-3.1-10.3-4.7-18.4-4.7h-16.6V562.2z"/>
		<path fill="#FFFFFF" d="M763.5,606.5c-5.1,1.7-10.9,2.6-17.3,2.6c-7.2,0-13.6-1.1-19.3-3.3c-5.7-2.2-10.6-5.3-14.6-9.3
			s-7.1-8.9-9.3-14.6c-2.2-5.7-3.2-12.1-3.2-19.1s1.1-13.3,3.2-19c2.1-5.7,5.1-10.6,9.1-14.6c3.9-4,8.7-7.1,14.3-9.3
			c5.6-2.2,11.9-3.3,18.9-3.3c3.5,0,6.6,0.2,9.6,0.7c2.9,0.5,5.6,1.2,8.2,2.1c2.5,0.9,4.9,2,7,3.4c2.2,1.3,4.3,2.9,6.3,4.6l-1.8,2.8
			c-0.6,1-1.5,1.3-2.7,0.7c-0.6-0.3-1.6-0.9-2.8-1.8c-1.2-0.9-2.8-1.9-4.9-2.9c-2.1-1-4.7-1.9-7.8-2.8c-3.1-0.8-6.9-1.2-11.3-1.2
			c-5.9,0-11.2,0.9-16,2.8c-4.8,1.9-8.8,4.6-12.2,8.1c-3.3,3.5-5.9,7.8-7.7,12.8c-1.8,5-2.7,10.7-2.7,17c0,6.4,0.9,12.1,2.7,17.2
			c1.8,5.1,4.4,9.4,7.9,12.9c3.4,3.5,7.6,6.3,12.5,8.1c4.9,1.9,10.4,2.8,16.6,2.8c2.7,0,5.2-0.2,7.5-0.5c2.3-0.3,4.5-0.8,6.5-1.4
			c2.1-0.6,4.1-1.4,6-2.3c1.9-0.9,3.9-2,5.9-3.1V572h-17.3c-0.5,0-0.9-0.1-1.2-0.4c-0.3-0.3-0.5-0.6-0.5-1v-3.6h25v32.2
			C773.4,602.3,768.6,604.8,763.5,606.5z"/>
		<path fill="#FFFFFF" d="M832.8,603.3c4.4,0,8.2-0.8,11.7-2.3c3.4-1.5,6.3-3.6,8.7-6.3c2.4-2.7,4.2-5.9,5.5-9.5
			c1.3-3.6,1.9-7.6,1.9-11.8v-56h6.5v56c0,5-0.8,9.7-2.4,14c-1.6,4.3-3.9,8.1-6.8,11.3c-3,3.2-6.6,5.8-10.8,7.6
			c-4.2,1.8-9,2.8-14.3,2.8s-10.1-0.9-14.3-2.8c-4.2-1.8-7.9-4.4-10.8-7.6c-3-3.2-5.2-7-6.8-11.3c-1.6-4.3-2.4-9-2.4-14v-56h6.6
			v55.9c0,4.2,0.6,8.2,1.9,11.8c1.3,3.6,3.1,6.8,5.4,9.5c2.4,2.7,5.3,4.8,8.7,6.3C824.6,602.6,828.5,603.3,832.8,603.3z"/>
		<path fill="#FFFFFF" d="M899.3,608h-6.6v-90.6h6.6V608z"/>
		<path fill="#FFFFFF" d="M1002.4,562.7c0,7-1,13.3-3.1,18.9c-2.1,5.6-5,10.3-8.8,14.3c-3.8,3.9-8.4,6.9-13.7,9
			c-5.3,2.1-11.2,3.1-17.6,3.1h-33.1v-90.6h33.1c6.4,0,12.3,1,17.6,3.1c5.3,2.1,9.9,5.1,13.7,9c3.8,3.9,6.7,8.7,8.8,14.3
			C1001.3,549.5,1002.4,555.7,1002.4,562.7z M995.6,562.7c0-6.3-0.9-11.9-2.6-16.9c-1.8-4.9-4.2-9.1-7.4-12.5c-3.2-3.4-7-6-11.5-7.8
			c-4.5-1.8-9.4-2.7-14.8-2.7h-26.5v79.9h26.5c5.4,0,10.4-0.9,14.8-2.7c4.5-1.8,8.3-4.4,11.5-7.8c3.2-3.4,5.7-7.6,7.4-12.5
			C994.7,574.7,995.6,569,995.6,562.7z"/>
		<path fill="#FFFFFF" d="M1077.6,517.4v5.4h-47.7v36.6h39.7v5.3h-39.7v37.8h47.8l-0.1,5.4h-54.3v-90.6H1077.6z"/>
	</g>
</g>
<text transform="matrix(1 0 0 1 344 608)" display="none" fill="#FFFFFF" enable-background="new    " font-family="'Lato-Light'" font-size="128">USER GUIDE</text>
</svg>
